<svg width="91" height="88" viewBox="0 0 91 88" fill="none" xmlns="http://www.w3.org/2000/svg">
<path d="M74.6217 48.7828C74.8177 48.7828 74.9857 48.8528 75.1257 48.9928C75.2657 49.1328 75.3357 49.3078 75.3357 49.5178C75.3357 49.7278 75.2587 49.9028 75.1047 50.0428C74.9507 50.1968 74.7687 50.2668 74.5587 50.2528C74.1247 50.2108 73.7817 50.1758 73.5297 50.1478C73.2777 50.1338 73.0397 50.1268 72.8157 50.1268C72.5637 50.1268 72.3117 50.1338 72.0597 50.1478C71.8217 50.1758 71.4927 50.2108 71.0727 50.2528C70.8627 50.2668 70.6807 50.1968 70.5267 50.0428C70.3727 49.9028 70.2957 49.7278 70.2957 49.5178C70.2957 49.3078 70.3657 49.1328 70.5057 48.9928C70.6457 48.8528 70.8137 48.7828 71.0097 48.7828C71.1357 48.7828 71.2687 48.7898 71.4087 48.8038C71.5487 48.8178 71.6887 48.8318 71.8287 48.8458H71.8707C71.9687 48.8458 72.0177 48.7898 72.0177 48.6778V43.1968C72.0177 42.5388 71.9197 42.0068 71.7237 41.6008C71.5417 41.1948 71.3107 40.9498 71.0307 40.8658C70.8767 40.8098 70.6737 40.7818 70.4217 40.7818C70.0297 40.7818 69.5397 40.9218 68.9517 41.2018C68.3777 41.4818 67.6847 42.0418 66.8727 42.8818C66.8027 42.9518 66.7677 43.0288 66.7677 43.1128V48.6778C66.7677 48.7898 66.8167 48.8458 66.9147 48.8458C67.0687 48.8458 67.2227 48.8388 67.3767 48.8248C67.5307 48.7968 67.6777 48.7828 67.8177 48.7828C68.0137 48.7828 68.1817 48.8528 68.3217 48.9928C68.4617 49.1328 68.5317 49.3078 68.5317 49.5178C68.5317 49.7278 68.4547 49.9028 68.3007 50.0428C68.1467 50.1968 67.9577 50.2668 67.7337 50.2528C67.2997 50.2108 66.9567 50.1758 66.7047 50.1478C66.4527 50.1338 66.2217 50.1268 66.0117 50.1268C65.7457 50.1268 65.4937 50.1338 65.2557 50.1478C65.0177 50.1758 64.6887 50.2108 64.2687 50.2528C64.0447 50.2668 63.8557 50.1968 63.7017 50.0428C63.5477 49.9028 63.4707 49.7278 63.4707 49.5178C63.4707 49.3078 63.5407 49.1328 63.6807 48.9928C63.8207 48.8528 63.9887 48.7828 64.1847 48.7828C64.3107 48.7828 64.4507 48.7898 64.6047 48.8038C64.7587 48.8178 64.9057 48.8318 65.0457 48.8458H65.0877C65.1857 48.8458 65.2347 48.7898 65.2347 48.6778V43.1968C65.2347 41.8248 64.9407 41.0408 64.3527 40.8448C64.2827 40.8168 64.2057 40.7958 64.1217 40.7818C64.0377 40.7678 63.9467 40.7608 63.8487 40.7608C63.4567 40.7608 62.9597 40.9078 62.3577 41.2018C61.7557 41.4958 61.0417 42.0698 60.2157 42.9238C60.1457 42.9938 60.1107 43.0708 60.1107 43.1548V48.6778C60.1107 48.7898 60.1597 48.8458 60.2577 48.8458C60.4117 48.8458 60.5587 48.8388 60.6987 48.8248C60.8527 48.7968 60.9997 48.7828 61.1397 48.7828C61.3357 48.7828 61.5037 48.8528 61.6437 48.9928C61.7837 49.1328 61.8537 49.3078 61.8537 49.5178C61.8537 49.7278 61.7767 49.9028 61.6227 50.0428C61.4687 50.1968 61.2867 50.2668 61.0767 50.2528C60.6427 50.2108 60.2997 50.1758 60.0477 50.1478C59.7957 50.1338 59.5577 50.1268 59.3337 50.1268C59.0817 50.1268 58.8297 50.1338 58.5777 50.1478C58.3397 50.1758 58.0107 50.2108 57.5907 50.2528C57.3807 50.2668 57.1987 50.1968 57.0447 50.0428C56.8907 49.9028 56.8137 49.7278 56.8137 49.5178C56.8137 49.3078 56.8837 49.1328 57.0237 48.9928C57.1637 48.8528 57.3317 48.7828 57.5277 48.7828C57.6397 48.7828 57.7727 48.7898 57.9267 48.8038C58.0807 48.8178 58.2277 48.8318 58.3677 48.8458H58.4097C58.5077 48.8458 58.5567 48.7898 58.5567 48.6778V40.7398C58.5567 40.6278 58.5077 40.5718 58.4097 40.5718C58.2697 40.5718 58.1157 40.5788 57.9477 40.5928C57.7937 40.6068 57.6397 40.6278 57.4857 40.6558C57.2617 40.6838 57.0657 40.6208 56.8977 40.4668C56.7297 40.3128 56.6457 40.1238 56.6457 39.8998C56.6457 39.6758 56.7297 39.4868 56.8977 39.3328C57.0657 39.1788 57.2617 39.1158 57.4857 39.1438C57.8077 39.1998 58.1647 39.2418 58.5567 39.2698H59.3337C59.5577 39.2698 59.7397 39.3468 59.8797 39.5008C60.0337 39.6408 60.1107 39.8228 60.1107 40.0468V40.8448C60.1107 40.9288 60.1317 40.9778 60.1737 40.9918C60.2297 41.0058 60.2857 40.9848 60.3417 40.9288C60.9997 40.3128 61.6367 39.8578 62.2527 39.5638C62.8827 39.2698 63.4637 39.1228 63.9957 39.1228C64.4297 39.1228 64.8567 39.2208 65.2767 39.4168C65.5987 39.5708 65.8577 39.7948 66.0537 40.0888C66.2637 40.3828 66.4177 40.7048 66.5157 41.0548C66.5577 41.2228 66.6417 41.2438 66.7677 41.1178C67.4677 40.4178 68.1397 39.9138 68.7837 39.6058C69.4277 39.2838 70.0367 39.1228 70.6107 39.1228C71.1007 39.1228 71.5557 39.2278 71.9757 39.4378C72.4237 39.6478 72.7597 39.9768 72.9837 40.4248C73.2217 40.8588 73.3827 41.3278 73.4667 41.8318C73.5507 42.3358 73.5927 42.7908 73.5927 43.1968V48.6778C73.5927 48.7898 73.6487 48.8458 73.7607 48.8458C73.9147 48.8458 74.0617 48.8388 74.2017 48.8248C74.3417 48.7968 74.4817 48.7828 74.6217 48.7828Z" fill="#44220D"/>
<path d="M46.9075 37.2959C46.5575 37.2959 46.2565 37.1769 46.0045 36.9389C45.7665 36.6869 45.6475 36.3859 45.6475 36.0359C45.6475 35.6719 45.7665 35.3709 46.0045 35.1329C46.2565 34.8949 46.5575 34.7759 46.9075 34.7759C47.2575 34.7759 47.5515 34.8949 47.7895 35.1329C48.0415 35.3709 48.1675 35.6719 48.1675 36.0359C48.1675 36.3859 48.0415 36.6869 47.7895 36.9389C47.5515 37.1769 47.2575 37.2959 46.9075 37.2959ZM45.0805 50.2529C44.8425 50.2669 44.6325 50.1899 44.4505 50.0219C44.2825 49.8679 44.1985 49.6719 44.1985 49.4339C44.1985 49.1959 44.2825 48.9929 44.4505 48.8249C44.6325 48.6569 44.8425 48.5869 45.0805 48.6149C45.2065 48.6289 45.3395 48.6429 45.4795 48.6569C45.6335 48.6709 45.7805 48.6849 45.9205 48.6989H45.9625C46.0605 48.6989 46.1095 48.6359 46.1095 48.5099V40.8659C46.1095 40.7539 46.0605 40.6979 45.9625 40.6979C45.6545 40.6979 45.3605 40.7189 45.0805 40.7609C44.8425 40.7749 44.6325 40.7049 44.4505 40.5509C44.2825 40.3829 44.1985 40.1799 44.1985 39.9419C44.1985 39.7039 44.2825 39.5009 44.4505 39.3329C44.6325 39.1649 44.8425 39.0949 45.0805 39.1229C45.4725 39.1509 45.7455 39.1789 45.8995 39.2069C46.0535 39.2209 46.1585 39.2279 46.2145 39.2279C46.2845 39.2279 46.3615 39.2279 46.4455 39.2279C46.7955 39.2279 47.0895 39.3539 47.3275 39.6059C47.5795 39.8439 47.7055 40.1379 47.7055 40.4879V48.5099C47.7055 48.6359 47.7545 48.6989 47.8525 48.6989C48.0065 48.6989 48.1535 48.6919 48.2935 48.6779C48.4475 48.6499 48.5945 48.6289 48.7345 48.6149C48.9725 48.5869 49.1755 48.6569 49.3435 48.8249C49.5115 48.9929 49.5955 49.1959 49.5955 49.4339C49.5955 49.6719 49.5115 49.8679 49.3435 50.0219C49.1755 50.1899 48.9725 50.2669 48.7345 50.2529C48.4545 50.2249 48.1535 50.1969 47.8315 50.1689C47.5095 50.1409 47.2015 50.1269 46.9075 50.1269C46.6135 50.1269 46.3055 50.1409 45.9835 50.1689C45.6615 50.1969 45.3605 50.2249 45.0805 50.2529Z" fill="#44220D"/>
<path d="M42.0838 39.1439C42.3078 39.1159 42.4968 39.1789 42.6508 39.3329C42.8048 39.4729 42.8818 39.6479 42.8818 39.8579C42.8818 40.0819 42.8048 40.2639 42.6508 40.4039C42.4968 40.5439 42.3078 40.6069 42.0838 40.5929L41.5168 40.5509C41.4048 40.5509 41.3278 40.5929 41.2858 40.6769L37.3378 49.7279C37.1978 50.0779 36.9318 50.2529 36.5398 50.2529C36.1618 50.2529 35.8888 50.0779 35.7208 49.7279L31.6258 40.6769C31.5838 40.5929 31.5068 40.5509 31.3948 40.5509L30.8278 40.5929C30.6038 40.6069 30.4148 40.5439 30.2608 40.4039C30.1068 40.2639 30.0298 40.0819 30.0298 39.8579C30.0298 39.6479 30.1068 39.4729 30.2608 39.3329C30.4148 39.1789 30.6038 39.1159 30.8278 39.1439C31.1918 39.1719 31.5068 39.1929 31.7728 39.2069C32.0388 39.2209 32.3048 39.2279 32.5708 39.2279C32.8228 39.2279 33.0818 39.2209 33.3478 39.2069C33.6278 39.1929 33.9428 39.1719 34.2928 39.1439C34.5168 39.1159 34.7058 39.1789 34.8598 39.3329C35.0138 39.4729 35.0908 39.6479 35.0908 39.8579C35.0908 40.0679 35.0208 40.2429 34.8808 40.3829C34.7408 40.5229 34.5728 40.5929 34.3768 40.5929C34.2508 40.5929 34.1108 40.5859 33.9568 40.5719C33.8168 40.5579 33.6698 40.5439 33.5158 40.5299H33.4738C33.3338 40.5299 33.2988 40.5999 33.3688 40.7399L36.4348 47.6489C36.4768 47.7329 36.5188 47.7749 36.5608 47.7749C36.6308 47.7749 36.6728 47.7329 36.6868 47.6489L39.5638 40.7399C39.5778 40.7119 39.5848 40.6769 39.5848 40.6349C39.5848 40.5649 39.5428 40.5299 39.4588 40.5299C39.3188 40.5299 39.1648 40.5439 38.9968 40.5719C38.8428 40.5859 38.6888 40.5929 38.5348 40.5929C38.3388 40.5929 38.1708 40.5229 38.0308 40.3829C37.8908 40.2429 37.8208 40.0679 37.8208 39.8579C37.8208 39.6479 37.8978 39.4729 38.0518 39.3329C38.2058 39.1789 38.3948 39.1159 38.6188 39.1439C38.9828 39.1719 39.2978 39.1929 39.5638 39.2069C39.8438 39.2209 40.1098 39.2279 40.3618 39.2279C40.6138 39.2279 40.8728 39.2209 41.1388 39.2069C41.4188 39.1929 41.7338 39.1719 42.0838 39.1439Z" fill="#44220D"/>
<path d="M20.2257 35.322L18.1677 37.107C18.0417 37.205 17.9157 37.254 17.7897 37.254C17.6497 37.254 17.5237 37.198 17.4117 37.086C17.2997 36.974 17.2437 36.841 17.2437 36.687C17.2437 36.561 17.2927 36.435 17.3907 36.309L19.2177 34.251C19.3717 34.083 19.5537 33.999 19.7637 33.999C19.9597 33.999 20.1347 34.076 20.2887 34.23C20.4287 34.37 20.4987 34.538 20.4987 34.734C20.4987 34.986 20.4077 35.182 20.2257 35.322ZM18.5877 50.232C17.5797 50.232 16.6627 49.98 15.8367 49.476C15.0107 48.972 14.3527 48.3 13.8627 47.46C13.3867 46.62 13.1487 45.696 13.1487 44.688C13.1487 43.666 13.3727 42.735 13.8207 41.895C14.2827 41.055 14.9057 40.383 15.6897 39.879C16.4877 39.375 17.3837 39.123 18.3777 39.123C19.8477 39.123 21.0307 39.585 21.9267 40.509C22.8227 41.419 23.3477 42.623 23.5017 44.121C23.5437 44.471 23.4387 44.772 23.1867 45.024C22.9487 45.262 22.6547 45.381 22.3047 45.381H14.9547C14.8147 45.381 14.7587 45.451 14.7867 45.591C14.9127 46.207 15.1577 46.753 15.5217 47.229C15.8857 47.705 16.3337 48.076 16.8657 48.342C17.3977 48.608 17.9717 48.741 18.5877 48.741C19.1197 48.741 19.6237 48.629 20.0997 48.405C20.5897 48.167 21.0097 47.852 21.3597 47.46C21.5697 47.25 21.7937 47.145 22.0317 47.145C22.1857 47.145 22.3327 47.194 22.4727 47.292C22.6967 47.446 22.8087 47.656 22.8087 47.922C22.8087 48.104 22.7527 48.251 22.6407 48.363C22.1367 48.951 21.5277 49.413 20.8137 49.749C20.1137 50.071 19.3717 50.232 18.5877 50.232ZM14.7867 43.659C14.7867 43.673 14.7797 43.687 14.7657 43.701C14.7657 43.701 14.7657 43.708 14.7657 43.722C14.7657 43.82 14.8287 43.869 14.9547 43.869H21.6957C21.8357 43.869 21.8917 43.799 21.8637 43.659C21.6817 42.679 21.3107 41.916 20.7507 41.37C20.1907 40.81 19.3997 40.53 18.3777 40.53C17.3977 40.53 16.5927 40.817 15.9627 41.391C15.3327 41.965 14.9407 42.721 14.7867 43.659Z" fill="#44220D"/>
<circle cx="43.75" cy="43.75" r="43" stroke="#44220D" stroke-width="1.5"/>
<circle cx="27.5625" cy="45.0625" r="1.3125" fill="#44220D"/>
<circle cx="53.8125" cy="45.0625" r="1.3125" fill="#44220D"/>
<path fill-rule="evenodd" clip-rule="evenodd" d="M17.3086 37.625C19.3473 37.625 21 35.9723 21 33.9336C21 33.7188 20.9817 33.5083 20.9465 33.3036C20.7417 33.2683 20.5312 33.25 20.3164 33.25C18.2777 33.25 16.625 34.9027 16.625 36.9414C16.625 37.1562 16.6433 37.3667 16.6785 37.5715C16.8833 37.6067 17.0938 37.625 17.3086 37.625Z" fill="#44220D"/>
<circle cx="86.625" cy="42.875" r="0.875" fill="#44220D"/>
<path fill-rule="evenodd" clip-rule="evenodd" d="M90.3165 38.4998C88.2778 38.4998 86.6251 40.1525 86.6251 42.1912C86.6251 42.4061 86.6435 42.6167 86.6787 42.8215C86.8834 42.8567 87.0939 42.875 87.3086 42.875C89.3473 42.875 91 41.2223 91 39.1836C91 38.9687 90.9817 38.7582 90.9465 38.5534C90.7417 38.5182 90.5313 38.4998 90.3165 38.4998Z" fill="#44220D"/>
<path fill-rule="evenodd" clip-rule="evenodd" d="M82.9337 38.4998C84.9724 38.4998 86.6251 40.1525 86.6251 42.1912C86.6251 42.4061 86.6067 42.6167 86.5715 42.8214C86.3668 42.8567 86.1562 42.875 85.9414 42.875C83.9027 42.875 82.25 41.2223 82.25 39.1836C82.25 38.9687 82.2684 38.7582 82.3036 38.5534C82.5084 38.5182 82.7189 38.4998 82.9337 38.4998Z" fill="#44220D"/>
<circle cx="86.1437" cy="49.4333" r="0.875" transform="rotate(6 86.1437 49.4333)" fill="#44220D"/>
<path fill-rule="evenodd" clip-rule="evenodd" d="M90.2722 45.4681C88.2447 45.255 86.4283 46.7259 86.2152 48.7534C86.1927 48.967 86.189 49.1783 86.2026 49.3856C86.4025 49.4421 86.61 49.4823 86.8236 49.5048C88.8512 49.7179 90.6676 48.247 90.8807 46.2194C90.9031 46.0058 90.9069 45.7945 90.8933 45.5872C90.6933 45.5308 90.4858 45.4906 90.2722 45.4681Z" fill="#44220D"/>
<path fill-rule="evenodd" clip-rule="evenodd" d="M82.9299 44.6965C84.9575 44.9096 86.4284 46.726 86.2153 48.7536C86.1928 48.9672 86.1526 49.1746 86.0962 49.3745C85.8889 49.3881 85.6776 49.3844 85.464 49.3619C83.4364 49.1488 81.9655 47.3324 82.1786 45.3049C82.2011 45.0913 82.2413 44.8839 82.2977 44.6839C82.505 44.6703 82.7163 44.6741 82.9299 44.6965Z" fill="#44220D"/>
<circle cx="84.7447" cy="55.9389" r="0.875" transform="rotate(12 84.7447 55.9389)" fill="#44220D"/>
<path fill-rule="evenodd" clip-rule="evenodd" d="M89.265 52.4272C87.2709 52.0033 85.3107 53.2763 84.8868 55.2704C84.8421 55.4805 84.8163 55.6902 84.8082 55.8978C85.0011 55.9748 85.2032 56.0365 85.4133 56.0811C87.4075 56.505 89.3677 55.2321 89.7916 53.2379C89.8362 53.0278 89.862 52.8181 89.8702 52.6105C89.6772 52.5335 89.4751 52.4718 89.265 52.4272Z" fill="#44220D"/>
<path fill-rule="evenodd" clip-rule="evenodd" d="M82.0436 50.8921C84.0377 51.316 85.3107 53.2762 84.8868 55.2703C84.8422 55.4804 84.7805 55.6825 84.7035 55.8754C84.4959 55.8673 84.2861 55.8414 84.076 55.7968C82.0819 55.3729 80.8089 53.4127 81.2328 51.4186C81.2774 51.2085 81.3391 51.0064 81.4161 50.8135C81.6237 50.8216 81.8335 50.8475 82.0436 50.8921Z" fill="#44220D"/>
<circle cx="81.9625" cy="62.4126" r="0.875" transform="rotate(24 81.9625 62.4126)" fill="#44220D"/>
<path fill-rule="evenodd" clip-rule="evenodd" d="M87.1144 59.9172C85.2519 59.088 83.0699 59.9256 82.2407 61.7881C82.1533 61.9843 82.0844 62.1842 82.0333 62.3856C82.206 62.501 82.3909 62.6034 82.5871 62.6907C84.4495 63.5199 86.6315 62.6823 87.4607 60.8199C87.5481 60.6236 87.617 60.4238 87.6681 60.2224C87.4954 60.107 87.3106 60.0046 87.1144 59.9172Z" fill="#44220D"/>
<path fill-rule="evenodd" clip-rule="evenodd" d="M80.3698 56.9144C82.2322 57.7436 83.0699 59.9256 82.2406 61.7881C82.1533 61.9843 82.0509 62.1691 81.9355 62.3418C81.7341 62.2907 81.5343 62.2219 81.338 62.1345C79.4756 61.3053 78.638 59.1232 79.4672 57.2608C79.5546 57.0646 79.6569 56.8797 79.7724 56.707C79.9738 56.7581 80.1736 56.827 80.3698 56.9144Z" fill="#44220D"/>
<circle cx="78.8554" cy="68.2082" r="0.875" transform="rotate(30 78.8554 68.2082)" fill="#44220D"/>
<path fill-rule="evenodd" clip-rule="evenodd" d="M84.2397 66.2652C82.4741 65.2458 80.2165 65.8507 79.1971 67.6163C79.0898 67.8022 79.0005 67.9936 78.9286 68.1885C79.0883 68.3213 79.2614 68.4424 79.4474 68.5498C81.213 69.5692 83.4706 68.9642 84.4899 67.1987C84.5973 67.0127 84.6866 66.8213 84.7585 66.6265C84.5988 66.4937 84.4257 66.3725 84.2397 66.2652Z" fill="#44220D"/>
<path fill-rule="evenodd" clip-rule="evenodd" d="M77.8461 62.5736C79.6117 63.593 80.2166 65.8506 79.1972 67.6162C79.0899 67.8021 78.9688 67.9752 78.8359 68.1349C78.641 68.063 78.4494 67.9736 78.2634 67.8662C76.4978 66.8469 75.8929 64.5892 76.9122 62.8237C77.0196 62.6377 77.1407 62.4646 77.2735 62.3049C77.4685 62.3768 77.66 62.4662 77.8461 62.5736Z" fill="#44220D"/>
<circle cx="74.9312" cy="73.5826" r="0.875" transform="rotate(36 74.9312 73.5826)" fill="#44220D"/>
<path fill-rule="evenodd" clip-rule="evenodd" d="M80.4892 72.2127C78.8399 71.0143 76.5314 71.38 75.333 73.0293C75.2068 73.2031 75.0979 73.3843 75.006 73.5706C75.1509 73.7195 75.3105 73.858 75.4842 73.9843C77.1336 75.1826 79.4421 74.817 80.6404 73.1676C80.7667 72.9938 80.8756 72.8127 80.9675 72.6263C80.8225 72.4775 80.663 72.3389 80.4892 72.2127Z" fill="#44220D"/>
<path fill-rule="evenodd" clip-rule="evenodd" d="M74.5163 67.8733C76.1656 69.0716 76.5312 71.3801 75.3329 73.0294C75.2066 73.2033 75.068 73.3629 74.919 73.5079C74.7328 73.416 74.5518 73.3072 74.3781 73.181C72.7288 71.9827 72.3632 69.6742 73.5615 68.0248C73.6878 67.851 73.8264 67.6914 73.9753 67.5464C74.1616 67.6382 74.3426 67.7471 74.5163 67.8733Z" fill="#44220D"/>
<path d="M26.462 22.18L25.482 23.03C25.4087 23.0833 25.3387 23.11 25.272 23.11C25.1854 23.11 25.1087 23.0767 25.042 23.01C24.9754 22.9433 24.942 22.8667 24.942 22.78C24.942 22.7067 24.9687 22.6333 25.022 22.56L25.892 21.58C25.972 21.4867 26.0754 21.44 26.202 21.44C26.3154 21.44 26.412 21.4833 26.492 21.57C26.572 21.65 26.612 21.7467 26.612 21.86C26.612 21.98 26.562 22.0867 26.462 22.18ZM27.962 29.16C28.102 29.16 28.2187 29.21 28.312 29.31C28.4054 29.4033 28.4454 29.5167 28.432 29.65L28.372 30.49C28.3654 30.6767 28.2954 30.8333 28.162 30.96C28.0287 31.0867 27.872 31.15 27.692 31.15H24.152C24.032 31.15 23.9054 31.16 23.772 31.18C23.6454 31.2 23.522 31.2167 23.402 31.23C23.262 31.25 23.1387 31.2133 23.032 31.12C22.9254 31.0267 22.872 30.9067 22.872 30.76C22.872 30.6133 22.9254 30.4967 23.032 30.41C23.1387 30.3167 23.262 30.28 23.402 30.3C23.422 30.3067 23.4454 30.31 23.472 30.31C23.4987 30.31 23.5287 30.3133 23.562 30.32H23.582C23.6354 30.32 23.662 30.2933 23.662 30.24V24.62C23.662 24.56 23.6354 24.53 23.582 24.53C23.5554 24.53 23.5254 24.5367 23.492 24.55C23.4654 24.5567 23.4354 24.5633 23.402 24.57C23.262 24.59 23.1387 24.5567 23.032 24.47C22.9254 24.3767 22.872 24.2567 22.872 24.11C22.872 23.9633 22.9254 23.8433 23.032 23.75C23.1387 23.6567 23.262 23.62 23.402 23.64C23.5354 23.6533 23.672 23.67 23.812 23.69C23.952 23.71 24.0854 23.72 24.212 23.72H27.692C27.872 23.72 28.0287 23.7833 28.162 23.91C28.2954 24.0367 28.3654 24.1933 28.372 24.38L28.432 25.22C28.4454 25.3467 28.4054 25.46 28.312 25.56C28.2187 25.66 28.102 25.71 27.962 25.71C27.8287 25.71 27.7154 25.6667 27.622 25.58C27.5354 25.4867 27.492 25.3767 27.492 25.25C27.492 25.17 27.4954 25.0833 27.502 24.99C27.5154 24.89 27.5254 24.7933 27.532 24.7C27.532 24.64 27.502 24.61 27.442 24.61H24.652C24.592 24.61 24.562 24.64 24.562 24.7V26.76C24.562 26.82 24.592 26.85 24.652 26.85H27.102C27.222 26.85 27.3254 26.8933 27.412 26.98C27.4987 27.0667 27.542 27.17 27.542 27.29C27.542 27.41 27.4987 27.5133 27.412 27.6C27.3254 27.68 27.222 27.72 27.102 27.72H24.652C24.592 27.72 24.562 27.75 24.562 27.81V30.17C24.562 30.23 24.592 30.26 24.652 30.26H27.442C27.502 30.26 27.532 30.23 27.532 30.17C27.5254 30.07 27.5154 29.9767 27.502 29.89C27.4954 29.7967 27.492 29.7067 27.492 29.62C27.492 29.4933 27.5354 29.3867 27.622 29.3C27.7154 29.2067 27.8287 29.16 27.962 29.16ZM35.0489 25.83C35.1756 25.8167 35.2822 25.85 35.3689 25.93C35.4556 26.01 35.4989 26.11 35.4989 26.23C35.4989 26.3567 35.4556 26.46 35.3689 26.54C35.2822 26.6133 35.1756 26.6467 35.0489 26.64L34.8189 26.62H34.7989C34.7656 26.62 34.7356 26.64 34.7089 26.68L32.8589 30.95C32.8256 31.0367 32.7656 31.1067 32.6789 31.16C32.5989 31.2133 32.5122 31.24 32.4189 31.24C32.2122 31.24 32.0656 31.1467 31.9789 30.96L30.0389 26.68C30.0122 26.6333 29.9756 26.6133 29.9289 26.62L29.7089 26.64C29.5822 26.6467 29.4756 26.6133 29.3889 26.54C29.3022 26.46 29.2589 26.3567 29.2589 26.23C29.2589 26.11 29.3022 26.01 29.3889 25.93C29.4756 25.85 29.5822 25.8167 29.7089 25.83C29.8822 25.8433 30.0322 25.8533 30.1589 25.86C30.2856 25.8667 30.4089 25.87 30.5289 25.87C30.6489 25.87 30.7722 25.8667 30.8989 25.86C31.0256 25.8533 31.1722 25.8433 31.3389 25.83C31.4656 25.8167 31.5722 25.85 31.6589 25.93C31.7456 26.01 31.7889 26.11 31.7889 26.23C31.7889 26.3567 31.7456 26.46 31.6589 26.54C31.5722 26.6133 31.4656 26.6467 31.3389 26.64L31.0689 26.62H31.0489C30.9822 26.62 30.9656 26.6533 30.9989 26.72L32.3689 29.79C32.3889 29.83 32.4089 29.85 32.4289 29.85C32.4622 29.85 32.4822 29.83 32.4889 29.79L33.7689 26.72C33.7756 26.7067 33.7789 26.69 33.7789 26.67C33.7789 26.6367 33.7522 26.62 33.6989 26.62L33.4189 26.64C33.2922 26.6467 33.1856 26.6133 33.0989 26.54C33.0122 26.46 32.9689 26.3567 32.9689 26.23C32.9689 26.11 33.0122 26.01 33.0989 25.93C33.1856 25.85 33.2922 25.8167 33.4189 25.83C33.5922 25.8433 33.7422 25.8533 33.8689 25.86C33.9956 25.8667 34.1189 25.87 34.2389 25.87C34.3522 25.87 34.4722 25.8667 34.5989 25.86C34.7322 25.8533 34.8822 25.8433 35.0489 25.83ZM37.4828 25.07C37.3028 25.07 37.1461 25.0067 37.0128 24.88C36.8861 24.7467 36.8228 24.59 36.8228 24.41C36.8228 24.2233 36.8861 24.0667 37.0128 23.94C37.1461 23.8133 37.3028 23.75 37.4828 23.75C37.6628 23.75 37.8161 23.8133 37.9428 23.94C38.0761 24.0667 38.1428 24.2233 38.1428 24.41C38.1428 24.59 38.0761 24.7467 37.9428 24.88C37.8161 25.0067 37.6628 25.07 37.4828 25.07ZM36.6228 31.24C36.4895 31.2467 36.3728 31.2067 36.2728 31.12C36.1795 31.0333 36.1328 30.9233 36.1328 30.79C36.1328 30.6567 36.1795 30.5467 36.2728 30.46C36.3728 30.3667 36.4895 30.3267 36.6228 30.34C36.7228 30.36 36.8328 30.37 36.9528 30.37H36.9728C37.0195 30.37 37.0428 30.3433 37.0428 30.29V26.77C37.0428 26.7167 37.0195 26.69 36.9728 26.69C36.8528 26.69 36.7361 26.7 36.6228 26.72C36.4895 26.7267 36.3728 26.6867 36.2728 26.6C36.1795 26.5133 36.1328 26.4033 36.1328 26.27C36.1328 26.1367 36.1828 26.0267 36.2828 25.94C36.3828 25.8467 36.4961 25.8067 36.6228 25.82C36.8028 25.8333 36.9295 25.8467 37.0028 25.86C37.0828 25.8667 37.1361 25.87 37.1628 25.87C37.1895 25.87 37.2228 25.87 37.2628 25.87C37.4428 25.87 37.5961 25.9367 37.7228 26.07C37.8561 26.1967 37.9228 26.35 37.9228 26.53V30.29C37.9228 30.3433 37.9461 30.37 37.9928 30.37C38.1195 30.37 38.2361 30.36 38.3428 30.34C38.4761 30.3267 38.5895 30.3667 38.6828 30.46C38.7761 30.5467 38.8228 30.6567 38.8228 30.79C38.8228 30.9233 38.7761 31.0333 38.6828 31.12C38.5895 31.2067 38.4761 31.2467 38.3428 31.24C38.2095 31.2267 38.0661 31.2133 37.9128 31.2C37.7661 31.1867 37.6228 31.18 37.4828 31.18C37.3428 31.18 37.1961 31.1867 37.0428 31.2C36.8961 31.2133 36.7561 31.2267 36.6228 31.24ZM48.757 23.63C48.8904 23.6167 49.0037 23.6567 49.097 23.75C49.1904 23.8367 49.237 23.9467 49.237 24.08C49.237 24.2133 49.1904 24.3233 49.097 24.41C49.0037 24.4967 48.8904 24.5367 48.757 24.53C48.637 24.51 48.517 24.5 48.397 24.5H48.377C48.3504 24.5 48.3237 24.5233 48.297 24.57L46.267 30.75C46.2204 30.8967 46.1304 31.0133 45.997 31.1C45.8704 31.1933 45.7304 31.24 45.577 31.24C45.4237 31.24 45.2837 31.1933 45.157 31.1C45.037 31.0133 44.9504 30.8967 44.897 30.75L42.877 24.57C42.857 24.5233 42.8304 24.5 42.797 24.5C42.677 24.5 42.5504 24.51 42.417 24.53C42.2904 24.5367 42.177 24.4967 42.077 24.41C41.9837 24.3233 41.937 24.2133 41.937 24.08C41.937 23.9467 41.9837 23.8367 42.077 23.75C42.177 23.6567 42.2904 23.6167 42.417 23.63C42.6104 23.65 42.777 23.6667 42.917 23.68C43.0637 23.6867 43.2004 23.69 43.327 23.69C43.4604 23.69 43.597 23.6867 43.737 23.68C43.8837 23.6667 44.0504 23.65 44.237 23.63C44.3704 23.6167 44.4837 23.6567 44.577 23.75C44.677 23.8367 44.727 23.9467 44.727 24.08C44.727 24.2133 44.677 24.3233 44.577 24.41C44.4837 24.4967 44.3704 24.5367 44.237 24.53C44.1837 24.5167 44.127 24.51 44.067 24.51C44.0137 24.51 43.9604 24.5067 43.907 24.5H43.887C43.827 24.5 43.807 24.5333 43.827 24.6L45.527 29.89C45.5537 29.9367 45.5737 29.96 45.587 29.96C45.6137 29.96 45.6337 29.9367 45.647 29.89L47.367 24.6C47.367 24.5933 47.367 24.5867 47.367 24.58C47.3737 24.5733 47.377 24.5667 47.377 24.56C47.377 24.52 47.3537 24.5 47.307 24.5C47.1804 24.5 47.057 24.51 46.937 24.53C46.8037 24.5367 46.687 24.4967 46.587 24.41C46.4937 24.3233 46.447 24.2133 46.447 24.08C46.447 23.9467 46.4937 23.8367 46.587 23.75C46.687 23.6567 46.8037 23.6167 46.937 23.63C47.1304 23.65 47.297 23.6667 47.437 23.68C47.577 23.6867 47.7137 23.69 47.847 23.69C47.9804 23.69 48.117 23.6867 48.257 23.68C48.4037 23.6667 48.5704 23.65 48.757 23.63ZM51.3207 25.07C51.1407 25.07 50.984 25.0067 50.8507 24.88C50.724 24.7467 50.6607 24.59 50.6607 24.41C50.6607 24.2233 50.724 24.0667 50.8507 23.94C50.984 23.8133 51.1407 23.75 51.3207 23.75C51.5007 23.75 51.654 23.8133 51.7807 23.94C51.914 24.0667 51.9807 24.2233 51.9807 24.41C51.9807 24.59 51.914 24.7467 51.7807 24.88C51.654 25.0067 51.5007 25.07 51.3207 25.07ZM50.4607 31.24C50.3274 31.2467 50.2107 31.2067 50.1107 31.12C50.0174 31.0333 49.9707 30.9233 49.9707 30.79C49.9707 30.6567 50.0174 30.5467 50.1107 30.46C50.2107 30.3667 50.3274 30.3267 50.4607 30.34C50.5607 30.36 50.6707 30.37 50.7907 30.37H50.8107C50.8574 30.37 50.8807 30.3433 50.8807 30.29V26.77C50.8807 26.7167 50.8574 26.69 50.8107 26.69C50.6907 26.69 50.574 26.7 50.4607 26.72C50.3274 26.7267 50.2107 26.6867 50.1107 26.6C50.0174 26.5133 49.9707 26.4033 49.9707 26.27C49.9707 26.1367 50.0207 26.0267 50.1207 25.94C50.2207 25.8467 50.334 25.8067 50.4607 25.82C50.6407 25.8333 50.7674 25.8467 50.8407 25.86C50.9207 25.8667 50.974 25.87 51.0007 25.87C51.0274 25.87 51.0607 25.87 51.1007 25.87C51.2807 25.87 51.434 25.9367 51.5607 26.07C51.694 26.1967 51.7607 26.35 51.7607 26.53V30.29C51.7607 30.3433 51.784 30.37 51.8307 30.37C51.9574 30.37 52.074 30.36 52.1807 30.34C52.314 30.3267 52.4274 30.3667 52.5207 30.46C52.614 30.5467 52.6607 30.6567 52.6607 30.79C52.6607 30.9233 52.614 31.0333 52.5207 31.12C52.4274 31.2067 52.314 31.2467 52.1807 31.24C52.0474 31.2267 51.904 31.2133 51.7507 31.2C51.604 31.1867 51.4607 31.18 51.3207 31.18C51.1807 31.18 51.034 31.1867 50.8807 31.2C50.734 31.2133 50.594 31.2267 50.4607 31.24ZM56.5749 29.39C56.7083 29.39 56.8183 29.4367 56.9049 29.53C56.9916 29.6233 57.0283 29.7367 57.0149 29.87C56.9683 30.3167 56.8249 30.6567 56.5849 30.89C56.3516 31.1233 56.0383 31.24 55.6449 31.24C55.3916 31.24 55.1649 31.18 54.9649 31.06C54.7649 30.94 54.6049 30.7767 54.4849 30.57C54.3716 30.3633 54.3149 30.1333 54.3149 29.88V26.8C54.3149 26.74 54.2849 26.71 54.2249 26.71H53.6849C53.5783 26.71 53.4816 26.67 53.3949 26.59C53.3149 26.5033 53.2749 26.4067 53.2749 26.3C53.2749 26.1867 53.3149 26.0933 53.3949 26.02C53.4816 25.94 53.5783 25.9 53.6849 25.9H54.2249C54.2849 25.9 54.3149 25.87 54.3149 25.81V24.16C54.3149 24.04 54.3583 23.9367 54.4449 23.85C54.5316 23.7633 54.6349 23.72 54.7549 23.72C54.8749 23.72 54.9749 23.7633 55.0549 23.85C55.1416 23.9367 55.1849 24.04 55.1849 24.16V25.81C55.1849 25.87 55.2149 25.9 55.2749 25.9H56.4249C56.5383 25.9 56.6316 25.94 56.7049 26.02C56.7849 26.0933 56.8249 26.1867 56.8249 26.3C56.8249 26.4067 56.7849 26.5033 56.7049 26.59C56.6316 26.67 56.5383 26.71 56.4249 26.71H55.2749C55.2149 26.71 55.1849 26.74 55.1849 26.8V29.88C55.1849 29.9 55.1916 29.95 55.2049 30.03C55.2249 30.11 55.2649 30.1867 55.3249 30.26C55.3916 30.3333 55.4983 30.37 55.6449 30.37C55.8049 30.37 55.9216 30.3267 55.9949 30.24C56.0749 30.1533 56.1283 29.9967 56.1549 29.77C56.1683 29.6567 56.2149 29.5667 56.2949 29.5C56.3749 29.4267 56.4683 29.39 56.5749 29.39ZM61.2006 24.12L60.2206 24.97C60.1473 25.0233 60.074 25.05 60.0006 25.05C59.9073 25.05 59.834 25.0167 59.7806 24.95C59.714 24.8833 59.6806 24.8067 59.6806 24.72C59.6806 24.6467 59.7073 24.5733 59.7606 24.5L60.6306 23.52C60.7106 23.4267 60.814 23.38 60.9406 23.38C61.054 23.38 61.1506 23.4233 61.2306 23.51C61.3106 23.59 61.3506 23.6867 61.3506 23.8C61.3506 23.92 61.3006 24.0267 61.2006 24.12ZM62.4306 30.36C62.4506 30.3533 62.4806 30.35 62.5206 30.35C62.634 30.35 62.7306 30.3933 62.8106 30.48C62.8906 30.56 62.9306 30.6633 62.9306 30.79C62.9306 30.93 62.8806 31.0433 62.7806 31.13C62.6806 31.2233 62.564 31.2567 62.4306 31.23C62.3306 31.2033 62.2306 31.1833 62.1306 31.17C62.0373 31.1633 61.9473 31.1567 61.8606 31.15C61.7273 31.15 61.6073 31.1133 61.5006 31.04C61.394 30.9667 61.314 30.8733 61.2606 30.76C61.2273 30.7 61.1873 30.69 61.1406 30.73C60.914 30.8967 60.6706 31.02 60.4106 31.1C60.1506 31.1867 59.844 31.23 59.4906 31.23C59.024 31.23 58.6406 31.0967 58.3406 30.83C58.0406 30.5567 57.8906 30.2067 57.8906 29.78C57.8906 29.4533 57.9706 29.1667 58.1306 28.92C58.2906 28.6667 58.5106 28.47 58.7906 28.33C59.0773 28.1833 59.4106 28.11 59.7906 28.11C59.9906 28.11 60.1973 28.13 60.4106 28.17C60.6306 28.21 60.8573 28.2767 61.0906 28.37C61.0973 28.37 61.104 28.3733 61.1106 28.38C61.1173 28.38 61.124 28.38 61.1306 28.38C61.1773 28.38 61.2006 28.3533 61.2006 28.3V27.99C61.2006 27.5367 61.084 27.2 60.8506 26.98C60.624 26.7533 60.3506 26.64 60.0306 26.64C59.9306 26.64 59.8273 26.6533 59.7206 26.68C59.6206 26.7 59.5173 26.73 59.4106 26.77C59.3573 26.79 59.3406 26.8267 59.3606 26.88C59.3673 26.9067 59.3706 26.93 59.3706 26.95C59.3773 26.97 59.3806 26.9933 59.3806 27.02C59.3806 27.1867 59.3206 27.3367 59.2006 27.47C59.0806 27.5967 58.9273 27.66 58.7406 27.66C58.5473 27.66 58.3906 27.5933 58.2706 27.46C58.1573 27.32 58.1006 27.1633 58.1006 26.99C58.1006 26.9033 58.1173 26.8167 58.1506 26.73C58.184 26.6433 58.234 26.5633 58.3006 26.49C58.4873 26.2767 58.7173 26.1133 58.9906 26C59.2706 25.88 59.5673 25.82 59.8806 25.82C60.574 25.82 61.1106 26.01 61.4906 26.39C61.8706 26.7633 62.0606 27.2967 62.0606 27.99V30.32C62.0606 30.38 62.084 30.41 62.1306 30.41C62.184 30.41 62.234 30.4033 62.2806 30.39C62.334 30.3767 62.384 30.3667 62.4306 30.36ZM59.4906 30.39C59.8573 30.3767 60.164 30.3167 60.4106 30.21C60.664 30.1033 60.914 29.9267 61.1606 29.68C61.1873 29.6467 61.2006 29.61 61.2006 29.57V29.35C61.2006 29.3033 61.1806 29.27 61.1406 29.25C61.0006 29.1767 60.8273 29.1033 60.6206 29.03C60.4206 28.9567 60.1506 28.92 59.8106 28.92C59.4706 28.92 59.204 28.9967 59.0106 29.15C58.8173 29.2967 58.7206 29.5067 58.7206 29.78C58.7206 29.96 58.7906 30.1067 58.9306 30.22C59.0773 30.3333 59.264 30.39 59.4906 30.39ZM65.86 30.42C65.9733 30.42 66.07 30.46 66.15 30.54C66.23 30.6133 66.27 30.71 66.27 30.83C66.27 30.95 66.2233 31.05 66.13 31.13C66.0433 31.21 65.94 31.2467 65.82 31.24C65.6133 31.22 65.4467 31.2033 65.32 31.19C65.2 31.1833 65.08 31.18 64.96 31.18C64.82 31.18 64.69 31.1833 64.57 31.19C64.45 31.2033 64.2933 31.22 64.1 31.24C63.98 31.2467 63.8733 31.21 63.78 31.13C63.6933 31.05 63.65 30.95 63.65 30.83C63.65 30.71 63.69 30.6133 63.77 30.54C63.85 30.46 63.9467 30.42 64.06 30.42C64.1133 30.42 64.17 30.4233 64.23 30.43C64.2967 30.4367 64.3633 30.4433 64.43 30.45H64.45C64.4967 30.45 64.52 30.4233 64.52 30.37V24.44C64.52 24.3867 64.4967 24.36 64.45 24.36C64.3833 24.36 64.3167 24.3667 64.25 24.38C64.19 24.3867 64.1233 24.39 64.05 24.39C63.9433 24.39 63.85 24.3533 63.77 24.28C63.69 24.2 63.65 24.1033 63.65 23.99C63.65 23.8633 63.6933 23.76 63.78 23.68C63.8667 23.6 63.9733 23.5667 64.1 23.58C64.2 23.5867 64.3033 23.5967 64.41 23.61C64.5233 23.6167 64.6333 23.6233 64.74 23.63C64.92 23.6367 65.0733 23.7067 65.2 23.84C65.3333 23.9667 65.4 24.1167 65.4 24.29V30.37C65.4 30.4233 65.4267 30.45 65.48 30.45C65.54 30.45 65.6033 30.4467 65.67 30.44C65.7367 30.4267 65.8 30.42 65.86 30.42Z" fill="#44220D"/>
<path d="M27.6243 61.34C27.751 61.34 27.8577 61.3833 27.9443 61.47C28.031 61.55 28.0743 61.6567 28.0743 61.79C28.0743 61.9233 28.0243 62.0333 27.9243 62.12C27.831 62.2067 27.7177 62.2467 27.5843 62.24C27.3977 62.22 27.231 62.2033 27.0843 62.19C26.9443 62.1833 26.8077 62.18 26.6743 62.18C26.5477 62.18 26.411 62.1833 26.2643 62.19C26.1243 62.2033 25.9577 62.22 25.7643 62.24C25.631 62.2467 25.5177 62.2067 25.4243 62.12C25.331 62.0333 25.2843 61.9233 25.2843 61.79C25.2843 61.6567 25.331 61.5467 25.4243 61.46C25.5177 61.3667 25.631 61.3267 25.7643 61.34C25.8377 61.3467 25.9143 61.3533 25.9943 61.36C26.081 61.3667 26.1643 61.3733 26.2443 61.38H26.2643C26.311 61.38 26.3343 61.3533 26.3343 61.3V56.25C26.3343 56.2033 26.321 56.18 26.2943 56.18C26.2677 56.1733 26.2477 56.19 26.2343 56.23L24.1743 60.99C24.1277 61.0967 24.0577 61.1833 23.9643 61.25C23.8777 61.31 23.7777 61.34 23.6643 61.34C23.5577 61.34 23.4543 61.3067 23.3543 61.24C23.261 61.1733 23.1943 61.09 23.1543 60.99L21.2543 56.22C21.2477 56.18 21.231 56.16 21.2043 56.16C21.171 56.16 21.1543 56.1867 21.1543 56.24V61.3C21.1543 61.3533 21.1777 61.38 21.2243 61.38C21.311 61.38 21.3943 61.3767 21.4743 61.37C21.561 61.3567 21.6443 61.3467 21.7243 61.34C21.8577 61.3267 21.971 61.3667 22.0643 61.46C22.1577 61.5467 22.2043 61.6567 22.2043 61.79C22.2043 61.9233 22.1577 62.0333 22.0643 62.12C21.971 62.2067 21.8577 62.2467 21.7243 62.24C21.5377 62.22 21.371 62.2033 21.2243 62.19C21.0843 62.1833 20.9477 62.18 20.8143 62.18C20.681 62.18 20.5443 62.1833 20.4043 62.19C20.2643 62.2033 20.0977 62.22 19.9043 62.24C19.771 62.2467 19.6543 62.2067 19.5543 62.12C19.461 62.0333 19.4143 61.9233 19.4143 61.79C19.4143 61.6567 19.4577 61.55 19.5443 61.47C19.631 61.3833 19.7377 61.34 19.8643 61.34C19.971 61.34 20.0677 61.35 20.1543 61.37C20.221 61.37 20.2543 61.34 20.2543 61.28V55.6C20.2543 55.54 20.2243 55.51 20.1643 55.51C20.1243 55.5167 20.081 55.5233 20.0343 55.53C19.9877 55.53 19.9377 55.53 19.8843 55.53C19.7577 55.53 19.651 55.4867 19.5643 55.4C19.4777 55.3133 19.4343 55.2067 19.4343 55.08C19.4343 54.9467 19.4843 54.8367 19.5843 54.75C19.6843 54.6633 19.801 54.6267 19.9343 54.64C20.1543 54.6667 20.3377 54.6867 20.4843 54.7C20.631 54.7133 20.781 54.72 20.9343 54.72C21.1277 54.72 21.301 54.7733 21.4543 54.88C21.6143 54.9867 21.7277 55.13 21.7943 55.31L23.6243 59.98C23.6443 60.02 23.6643 60.04 23.6843 60.04C23.7177 60.04 23.7377 60.02 23.7443 59.98L25.7143 55.3C25.7877 55.1267 25.9043 54.9867 26.0643 54.88C26.2243 54.7733 26.3977 54.72 26.5843 54.72C26.7443 54.72 26.8943 54.7133 27.0343 54.7C27.1743 54.6867 27.3477 54.6667 27.5543 54.64C27.6877 54.6267 27.8043 54.6667 27.9043 54.76C28.0043 54.8467 28.0543 54.9567 28.0543 55.09C28.0543 55.2167 28.011 55.3233 27.9243 55.41C27.8377 55.49 27.731 55.53 27.6043 55.53C27.5577 55.53 27.511 55.5267 27.4643 55.52C27.4243 55.5133 27.3777 55.51 27.3243 55.51H27.3043C27.2577 55.51 27.2343 55.5367 27.2343 55.59V61.28C27.2343 61.34 27.2677 61.37 27.3343 61.37C27.4343 61.35 27.531 61.34 27.6243 61.34ZM33.6523 61.36C33.6723 61.3533 33.7023 61.35 33.7423 61.35C33.8556 61.35 33.9523 61.3933 34.0323 61.48C34.1123 61.56 34.1523 61.6633 34.1523 61.79C34.1523 61.93 34.1023 62.0433 34.0023 62.13C33.9023 62.2233 33.7856 62.2567 33.6523 62.23C33.5523 62.2033 33.4523 62.1833 33.3523 62.17C33.259 62.1633 33.169 62.1567 33.0823 62.15C32.949 62.15 32.829 62.1133 32.7223 62.04C32.6156 61.9667 32.5356 61.8733 32.4823 61.76C32.449 61.7 32.409 61.69 32.3623 61.73C32.1356 61.8967 31.8923 62.02 31.6323 62.1C31.3723 62.1867 31.0656 62.23 30.7123 62.23C30.2456 62.23 29.8623 62.0967 29.5623 61.83C29.2623 61.5567 29.1123 61.2067 29.1123 60.78C29.1123 60.4533 29.1923 60.1667 29.3523 59.92C29.5123 59.6667 29.7323 59.47 30.0123 59.33C30.299 59.1833 30.6323 59.11 31.0123 59.11C31.2123 59.11 31.419 59.13 31.6323 59.17C31.8523 59.21 32.079 59.2767 32.3123 59.37C32.319 59.37 32.3256 59.3733 32.3323 59.38C32.339 59.38 32.3456 59.38 32.3523 59.38C32.399 59.38 32.4223 59.3533 32.4223 59.3V58.99C32.4223 58.5367 32.3056 58.2 32.0723 57.98C31.8456 57.7533 31.5723 57.64 31.2523 57.64C31.1523 57.64 31.049 57.6533 30.9423 57.68C30.8423 57.7 30.739 57.73 30.6323 57.77C30.579 57.79 30.5623 57.8267 30.5823 57.88C30.589 57.9067 30.5923 57.93 30.5923 57.95C30.599 57.97 30.6023 57.9933 30.6023 58.02C30.6023 58.1867 30.5423 58.3367 30.4223 58.47C30.3023 58.5967 30.149 58.66 29.9623 58.66C29.769 58.66 29.6123 58.5933 29.4923 58.46C29.379 58.32 29.3223 58.1633 29.3223 57.99C29.3223 57.9033 29.339 57.8167 29.3723 57.73C29.4056 57.6433 29.4556 57.5633 29.5223 57.49C29.709 57.2767 29.939 57.1133 30.2123 57C30.4923 56.88 30.789 56.82 31.1023 56.82C31.7956 56.82 32.3323 57.01 32.7123 57.39C33.0923 57.7633 33.2823 58.2967 33.2823 58.99V61.32C33.2823 61.38 33.3056 61.41 33.3523 61.41C33.4056 61.41 33.4556 61.4033 33.5023 61.39C33.5556 61.3767 33.6056 61.3667 33.6523 61.36ZM30.7123 61.39C31.079 61.3767 31.3856 61.3167 31.6323 61.21C31.8856 61.1033 32.1356 60.9267 32.3823 60.68C32.409 60.6467 32.4223 60.61 32.4223 60.57V60.35C32.4223 60.3033 32.4023 60.27 32.3623 60.25C32.2223 60.1767 32.049 60.1033 31.8423 60.03C31.6423 59.9567 31.3723 59.92 31.0323 59.92C30.6923 59.92 30.4256 59.9967 30.2323 60.15C30.039 60.2967 29.9423 60.5067 29.9423 60.78C29.9423 60.96 30.0123 61.1067 30.1523 61.22C30.299 61.3333 30.4856 61.39 30.7123 61.39ZM36.2212 58.39C36.2212 58.5433 36.3012 58.6633 36.4612 58.75C36.6279 58.8367 36.8379 58.9067 37.0912 58.96C37.3512 59.0133 37.6245 59.0733 37.9112 59.14C38.1979 59.2 38.4679 59.2867 38.7212 59.4C38.9812 59.5133 39.1912 59.67 39.3512 59.87C39.5179 60.07 39.6012 60.3333 39.6012 60.66C39.6012 60.9733 39.5045 61.25 39.3112 61.49C39.1245 61.7233 38.8579 61.9033 38.5112 62.03C38.1712 62.1633 37.7745 62.23 37.3212 62.23C37.0612 62.23 36.7979 62.1967 36.5312 62.13C36.2645 62.07 36.0179 61.9833 35.7912 61.87C35.5645 61.7567 35.3812 61.62 35.2412 61.46C35.1012 61.3 35.0312 61.1233 35.0312 60.93C35.0312 60.75 35.0945 60.6 35.2212 60.48C35.3479 60.3533 35.4945 60.29 35.6612 60.29C35.8479 60.29 35.9979 60.3567 36.1112 60.49C36.2312 60.6167 36.2912 60.7633 36.2912 60.93C36.2912 60.95 36.2912 60.97 36.2912 60.99C36.2912 61.01 36.2879 61.03 36.2812 61.05V61.07C36.2812 61.11 36.3012 61.14 36.3412 61.16C36.4745 61.22 36.6245 61.2733 36.7912 61.32C36.9579 61.3667 37.1345 61.39 37.3212 61.39C37.7412 61.39 38.0812 61.32 38.3412 61.18C38.6012 61.04 38.7312 60.8567 38.7312 60.63C38.7312 60.4567 38.6479 60.3233 38.4812 60.23C38.3212 60.1367 38.1112 60.06 37.8512 60C37.5979 59.9333 37.3279 59.8667 37.0412 59.8C36.7545 59.7333 36.4812 59.65 36.2212 59.55C35.9679 59.4433 35.7579 59.3 35.5912 59.12C35.4312 58.9333 35.3512 58.69 35.3512 58.39C35.3512 57.91 35.5412 57.5333 35.9212 57.26C36.3079 56.98 36.8179 56.84 37.4512 56.84C37.8179 56.84 38.1412 56.8867 38.4212 56.98C38.7012 57.0733 38.9212 57.2033 39.0812 57.37C39.2479 57.53 39.3312 57.7167 39.3312 57.93C39.3312 57.95 39.3312 57.9733 39.3312 58C39.3312 58.02 39.3279 58.04 39.3212 58.06C39.3012 58.2067 39.2312 58.33 39.1112 58.43C38.9912 58.53 38.8545 58.58 38.7012 58.58C38.5079 58.58 38.3479 58.5067 38.2212 58.36C38.1012 58.2067 38.0545 58.0367 38.0812 57.85V57.83C38.0812 57.79 38.0612 57.76 38.0212 57.74C37.9345 57.7133 37.8445 57.6933 37.7512 57.68C37.6645 57.6667 37.5645 57.66 37.4512 57.66C37.0979 57.66 36.8045 57.7267 36.5712 57.86C36.3379 57.9933 36.2212 58.17 36.2212 58.39ZM41.8755 58.39C41.8755 58.5433 41.9555 58.6633 42.1155 58.75C42.2822 58.8367 42.4922 58.9067 42.7455 58.96C43.0055 59.0133 43.2788 59.0733 43.5655 59.14C43.8522 59.2 44.1222 59.2867 44.3755 59.4C44.6355 59.5133 44.8455 59.67 45.0055 59.87C45.1722 60.07 45.2555 60.3333 45.2555 60.66C45.2555 60.9733 45.1588 61.25 44.9655 61.49C44.7788 61.7233 44.5122 61.9033 44.1655 62.03C43.8255 62.1633 43.4288 62.23 42.9755 62.23C42.7155 62.23 42.4522 62.1967 42.1855 62.13C41.9188 62.07 41.6722 61.9833 41.4455 61.87C41.2188 61.7567 41.0355 61.62 40.8955 61.46C40.7555 61.3 40.6855 61.1233 40.6855 60.93C40.6855 60.75 40.7488 60.6 40.8755 60.48C41.0022 60.3533 41.1488 60.29 41.3155 60.29C41.5022 60.29 41.6522 60.3567 41.7655 60.49C41.8855 60.6167 41.9455 60.7633 41.9455 60.93C41.9455 60.95 41.9455 60.97 41.9455 60.99C41.9455 61.01 41.9422 61.03 41.9355 61.05V61.07C41.9355 61.11 41.9555 61.14 41.9955 61.16C42.1288 61.22 42.2788 61.2733 42.4455 61.32C42.6122 61.3667 42.7888 61.39 42.9755 61.39C43.3955 61.39 43.7355 61.32 43.9955 61.18C44.2555 61.04 44.3855 60.8567 44.3855 60.63C44.3855 60.4567 44.3022 60.3233 44.1355 60.23C43.9755 60.1367 43.7655 60.06 43.5055 60C43.2522 59.9333 42.9822 59.8667 42.6955 59.8C42.4088 59.7333 42.1355 59.65 41.8755 59.55C41.6222 59.4433 41.4122 59.3 41.2455 59.12C41.0855 58.9333 41.0055 58.69 41.0055 58.39C41.0055 57.91 41.1955 57.5333 41.5755 57.26C41.9622 56.98 42.4722 56.84 43.1055 56.84C43.4722 56.84 43.7955 56.8867 44.0755 56.98C44.3555 57.0733 44.5755 57.2033 44.7355 57.37C44.9022 57.53 44.9855 57.7167 44.9855 57.93C44.9855 57.95 44.9855 57.9733 44.9855 58C44.9855 58.02 44.9822 58.04 44.9755 58.06C44.9555 58.2067 44.8855 58.33 44.7655 58.43C44.6455 58.53 44.5088 58.58 44.3555 58.58C44.1622 58.58 44.0022 58.5067 43.8755 58.36C43.7555 58.2067 43.7088 58.0367 43.7355 57.85V57.83C43.7355 57.79 43.7155 57.76 43.6755 57.74C43.5888 57.7133 43.4988 57.6933 43.4055 57.68C43.3188 57.6667 43.2188 57.66 43.1055 57.66C42.7522 57.66 42.4588 57.7267 42.2255 57.86C41.9922 57.9933 41.8755 58.17 41.8755 58.39ZM50.0598 62.15H46.7698C46.6365 62.15 46.5265 62.1033 46.4398 62.01C46.3531 61.9167 46.3098 61.81 46.3098 61.69C46.3098 61.59 46.3431 61.4967 46.4098 61.41L49.0698 57.88C49.0831 57.8533 49.0898 57.8367 49.0898 57.83C49.0898 57.79 49.0631 57.77 49.0098 57.77H47.1798C47.1265 57.77 47.0998 57.7933 47.0998 57.84C47.0998 57.9 47.1031 57.96 47.1098 58.02C47.1231 58.0733 47.1331 58.1333 47.1398 58.2C47.1531 58.3333 47.1131 58.45 47.0198 58.55C46.9331 58.6433 46.8231 58.69 46.6898 58.69C46.5565 58.69 46.4465 58.6433 46.3598 58.55C46.2731 58.45 46.2331 58.3333 46.2398 58.2C46.2531 58.1 46.2631 57.9933 46.2698 57.88C46.2831 57.7667 46.2931 57.6567 46.2998 57.55C46.3065 57.37 46.3731 57.2167 46.4998 57.09C46.6265 56.9567 46.7798 56.89 46.9598 56.89H49.9598C50.0931 56.89 50.2031 56.9367 50.2898 57.03C50.3765 57.1233 50.4198 57.2333 50.4198 57.36C50.4198 57.4533 50.3898 57.5467 50.3298 57.64L47.6598 61.17C47.6465 61.1967 47.6398 61.2133 47.6398 61.22C47.6398 61.26 47.6665 61.28 47.7198 61.28H49.8298C49.8831 61.28 49.9098 61.2567 49.9098 61.21C49.9098 61.0833 49.8998 60.96 49.8798 60.84C49.8731 60.7067 49.9131 60.5933 49.9998 60.5C50.0865 60.4 50.1965 60.35 50.3298 60.35C50.4631 60.35 50.5731 60.4 50.6598 60.5C50.7465 60.5933 50.7831 60.7067 50.7698 60.84C50.7631 60.94 50.7531 61.0467 50.7398 61.16C50.7331 61.2667 50.7265 61.3767 50.7198 61.49C50.7131 61.6767 50.6431 61.8333 50.5098 61.96C50.3831 62.0867 50.2331 62.15 50.0598 62.15ZM54.9809 55.12L54.0009 55.97C53.9276 56.0233 53.8542 56.05 53.7809 56.05C53.6876 56.05 53.6142 56.0167 53.5609 55.95C53.4942 55.8833 53.4609 55.8067 53.4609 55.72C53.4609 55.6467 53.4876 55.5733 53.5409 55.5L54.4109 54.52C54.4909 54.4267 54.5942 54.38 54.7209 54.38C54.8342 54.38 54.9309 54.4233 55.0109 54.51C55.0909 54.59 55.1309 54.6867 55.1309 54.8C55.1309 54.92 55.0809 55.0267 54.9809 55.12ZM56.2109 61.36C56.2309 61.3533 56.2609 61.35 56.3009 61.35C56.4142 61.35 56.5109 61.3933 56.5909 61.48C56.6709 61.56 56.7109 61.6633 56.7109 61.79C56.7109 61.93 56.6609 62.0433 56.5609 62.13C56.4609 62.2233 56.3442 62.2567 56.2109 62.23C56.1109 62.2033 56.0109 62.1833 55.9109 62.17C55.8176 62.1633 55.7276 62.1567 55.6409 62.15C55.5076 62.15 55.3876 62.1133 55.2809 62.04C55.1742 61.9667 55.0942 61.8733 55.0409 61.76C55.0076 61.7 54.9676 61.69 54.9209 61.73C54.6942 61.8967 54.4509 62.02 54.1909 62.1C53.9309 62.1867 53.6242 62.23 53.2709 62.23C52.8042 62.23 52.4209 62.0967 52.1209 61.83C51.8209 61.5567 51.6709 61.2067 51.6709 60.78C51.6709 60.4533 51.7509 60.1667 51.9109 59.92C52.0709 59.6667 52.2909 59.47 52.5709 59.33C52.8576 59.1833 53.1909 59.11 53.5709 59.11C53.7709 59.11 53.9776 59.13 54.1909 59.17C54.4109 59.21 54.6376 59.2767 54.8709 59.37C54.8776 59.37 54.8842 59.3733 54.8909 59.38C54.8976 59.38 54.9042 59.38 54.9109 59.38C54.9576 59.38 54.9809 59.3533 54.9809 59.3V58.99C54.9809 58.5367 54.8642 58.2 54.6309 57.98C54.4042 57.7533 54.1309 57.64 53.8109 57.64C53.7109 57.64 53.6076 57.6533 53.5009 57.68C53.4009 57.7 53.2976 57.73 53.1909 57.77C53.1376 57.79 53.1209 57.8267 53.1409 57.88C53.1476 57.9067 53.1509 57.93 53.1509 57.95C53.1576 57.97 53.1609 57.9933 53.1609 58.02C53.1609 58.1867 53.1009 58.3367 52.9809 58.47C52.8609 58.5967 52.7076 58.66 52.5209 58.66C52.3276 58.66 52.1709 58.5933 52.0509 58.46C51.9376 58.32 51.8809 58.1633 51.8809 57.99C51.8809 57.9033 51.8976 57.8167 51.9309 57.73C51.9642 57.6433 52.0142 57.5633 52.0809 57.49C52.2676 57.2767 52.4976 57.1133 52.7709 57C53.0509 56.88 53.3476 56.82 53.6609 56.82C54.3542 56.82 54.8909 57.01 55.2709 57.39C55.6509 57.7633 55.8409 58.2967 55.8409 58.99V61.32C55.8409 61.38 55.8642 61.41 55.9109 61.41C55.9642 61.41 56.0142 61.4033 56.0609 61.39C56.1142 61.3767 56.1642 61.3667 56.2109 61.36ZM53.2709 61.39C53.6376 61.3767 53.9442 61.3167 54.1909 61.21C54.4442 61.1033 54.6942 60.9267 54.9409 60.68C54.9676 60.6467 54.9809 60.61 54.9809 60.57V60.35C54.9809 60.3033 54.9609 60.27 54.9209 60.25C54.7809 60.1767 54.6076 60.1033 54.4009 60.03C54.2009 59.9567 53.9309 59.92 53.5909 59.92C53.2509 59.92 52.9842 59.9967 52.7909 60.15C52.5976 60.2967 52.5009 60.5067 52.5009 60.78C52.5009 60.96 52.5709 61.1067 52.7109 61.22C52.8576 61.3333 53.0442 61.39 53.2709 61.39ZM61.2903 62.15H58.0003C57.8669 62.15 57.7569 62.1033 57.6703 62.01C57.5836 61.9167 57.5403 61.81 57.5403 61.69C57.5403 61.59 57.5736 61.4967 57.6403 61.41L60.3003 57.88C60.3136 57.8533 60.3203 57.8367 60.3203 57.83C60.3203 57.79 60.2936 57.77 60.2403 57.77H58.4103C58.3569 57.77 58.3303 57.7933 58.3303 57.84C58.3303 57.9 58.3336 57.96 58.3403 58.02C58.3536 58.0733 58.3636 58.1333 58.3703 58.2C58.3836 58.3333 58.3436 58.45 58.2503 58.55C58.1636 58.6433 58.0536 58.69 57.9203 58.69C57.7869 58.69 57.6769 58.6433 57.5903 58.55C57.5036 58.45 57.4636 58.3333 57.4703 58.2C57.4836 58.1 57.4936 57.9933 57.5003 57.88C57.5136 57.7667 57.5236 57.6567 57.5303 57.55C57.5369 57.37 57.6036 57.2167 57.7303 57.09C57.8569 56.9567 58.0103 56.89 58.1903 56.89H61.1903C61.3236 56.89 61.4336 56.9367 61.5203 57.03C61.6069 57.1233 61.6503 57.2333 61.6503 57.36C61.6503 57.4533 61.6203 57.5467 61.5603 57.64L58.8903 61.17C58.8769 61.1967 58.8703 61.2133 58.8703 61.22C58.8703 61.26 58.8969 61.28 58.9503 61.28H61.0603C61.1136 61.28 61.1403 61.2567 61.1403 61.21C61.1403 61.0833 61.1303 60.96 61.1103 60.84C61.1036 60.7067 61.1436 60.5933 61.2303 60.5C61.3169 60.4 61.4269 60.35 61.5603 60.35C61.6936 60.35 61.8036 60.4 61.8903 60.5C61.9769 60.5933 62.0136 60.7067 62.0003 60.84C61.9936 60.94 61.9836 61.0467 61.9703 61.16C61.9636 61.2667 61.9569 61.3767 61.9503 61.49C61.9436 61.6767 61.8736 61.8333 61.7403 61.96C61.6136 62.0867 61.4636 62.15 61.2903 62.15ZM64.1314 58.39C64.1314 58.5433 64.2114 58.6633 64.3714 58.75C64.538 58.8367 64.748 58.9067 65.0014 58.96C65.2614 59.0133 65.5347 59.0733 65.8214 59.14C66.108 59.2 66.378 59.2867 66.6314 59.4C66.8914 59.5133 67.1014 59.67 67.2614 59.87C67.428 60.07 67.5114 60.3333 67.5114 60.66C67.5114 60.9733 67.4147 61.25 67.2214 61.49C67.0347 61.7233 66.768 61.9033 66.4214 62.03C66.0814 62.1633 65.6847 62.23 65.2314 62.23C64.9714 62.23 64.708 62.1967 64.4414 62.13C64.1747 62.07 63.928 61.9833 63.7014 61.87C63.4747 61.7567 63.2914 61.62 63.1514 61.46C63.0114 61.3 62.9414 61.1233 62.9414 60.93C62.9414 60.75 63.0047 60.6 63.1314 60.48C63.258 60.3533 63.4047 60.29 63.5714 60.29C63.758 60.29 63.908 60.3567 64.0214 60.49C64.1414 60.6167 64.2014 60.7633 64.2014 60.93C64.2014 60.95 64.2014 60.97 64.2014 60.99C64.2014 61.01 64.198 61.03 64.1914 61.05V61.07C64.1914 61.11 64.2114 61.14 64.2514 61.16C64.3847 61.22 64.5347 61.2733 64.7014 61.32C64.868 61.3667 65.0447 61.39 65.2314 61.39C65.6514 61.39 65.9914 61.32 66.2514 61.18C66.5114 61.04 66.6414 60.8567 66.6414 60.63C66.6414 60.4567 66.558 60.3233 66.3914 60.23C66.2314 60.1367 66.0214 60.06 65.7614 60C65.508 59.9333 65.238 59.8667 64.9514 59.8C64.6647 59.7333 64.3914 59.65 64.1314 59.55C63.878 59.4433 63.668 59.3 63.5014 59.12C63.3414 58.9333 63.2614 58.69 63.2614 58.39C63.2614 57.91 63.4514 57.5333 63.8314 57.26C64.218 56.98 64.728 56.84 65.3614 56.84C65.728 56.84 66.0514 56.8867 66.3314 56.98C66.6114 57.0733 66.8314 57.2033 66.9914 57.37C67.158 57.53 67.2414 57.7167 67.2414 57.93C67.2414 57.95 67.2414 57.9733 67.2414 58C67.2414 58.02 67.238 58.04 67.2314 58.06C67.2114 58.2067 67.1414 58.33 67.0214 58.43C66.9014 58.53 66.7647 58.58 66.6114 58.58C66.418 58.58 66.258 58.5067 66.1314 58.36C66.0114 58.2067 65.9647 58.0367 65.9914 57.85V57.83C65.9914 57.79 65.9714 57.76 65.9314 57.74C65.8447 57.7133 65.7547 57.6933 65.6614 57.68C65.5747 57.6667 65.4747 57.66 65.3614 57.66C65.008 57.66 64.7147 57.7267 64.4814 57.86C64.248 57.9933 64.1314 58.17 64.1314 58.39Z" fill="#44220D"/>
</svg>
